<?xml version="1.0" encoding="UTF-8"?>
<svg id="Layer_1" data-name="Layer 1" xmlns="http://www.w3.org/2000/svg" viewBox="0 0 609.36 769.71">
  <defs>
    <style>
      .cls-1 {
        fill: #d9dddb;
      }

      .cls-2 {
        fill: #003a22;
      }
    </style>
  </defs>
  <path class="cls-1" d="M217.7,141.2c1.02-4.08,10.2-17.86,15.31-17.86h12.75c3.06,0,5.61-12.75,5.61-12.75,0,0,8.67-2.04,10.71-3.57,2.04-1.53,5.1-7.14,3.57-10.71-1.53-3.57-4.59-10.71-4.59-14.28s5.61-17.35,7.14-19.39c1.53-2.04,11.22-13.77,11.22-13.77,0,0,11.67.51,13.23,0,1.56-.51,13.81-11.73,15.34-12.75,1.53-1.02,9.18,6.63,13.26,7.14,4.08.51,4.59-13.26,4.59-13.26,0,0-3.06,11.73,2.55,11.73s10.2-15.82,11.73-16.33c1.53-.51,8.67-4.08,9.69-2.04,1.02,2.04,6.63,21.94,7.65,23.98,1.02,2.04,7.14,5.61,7.65,1.53.51-4.08-8.16-10.71-4.59-18.37,3.57-7.65-7.65-11.73,8.67-11.73s19.39-11.22,19.39-11.22c0,0-8.67-3.06-5.61-3.57,3.06-.51,21.43,17.86,22.96,17.86s15.82,6.12,17.86,6.63c2.04.51,0,9.69,0,9.69,0,0,.51,2.04,9.69,2.04s16.33-4.59,22.45-6.63c6.12-2.04,19.39-5.61,22.45-5.61s7.14-3.57,17.35.51c10.2,4.08,3.06,4.08,10.2,4.08s7.65-4.59,10.2-2.04c2.55,2.55,7.65,9.18,8.67,10.71,1.02,1.53,0,18.88,0,18.88,0,0,6.12,6.63,8.67,6.63s4.59,10.2,4.59,12.75,13.26,16.33,15.3,19.9c2.04,3.57,6.63,5.1,8.67,6.63,2.04,1.53,3.57,11.22,3.57,12.75s-3.57,7.14-3.57,7.14c0,0-3.06,5.1-2.04,7.65,1.02,2.55,11.22,3.57,12.75,3.57s8.16-3.57,11.22,4.08c3.06,7.65,10.2,18.37,10.2,18.37l3.57,20.41-9.18,19.39-9.18,19.39s5.1,3.57-6.12,3.57-16.33-3.06-17.86,0c-1.53,3.06-5.1,15.82-4.59,19.39.51,3.57-16.33,16.84-16.33,16.84h-25.51s14.28,7.65,12.75,8.67c-1.53,1.02,7.65,4.08-5.61,4.08h-19.9s-3.06,13.77-1.53,17.35c1.53,3.57,12.24,10.71,12.24,10.71l3.06,6.12-2.04,15.31s7.65,15.82,11.22,20.92c3.57,5.1,9.18,10.71,9.18,10.71l-3.57,22.93,3.06,14.64-8.16,8.35s5.61,6.63,6.63,8.67c1.02,2.04,13.77,35.2,13.77,35.2l-1.53,15.31.51,12.24s-7.65,33.67-9.69,38.26c-2.04,4.59-3.57,10.71-5.1,13.77-1.53,3.06-2.04,13.26-2.04,13.26l-1.53,12.24s-2.55,12.75-3.57,14.28c-1.02,1.53-8.16,15.82-8.16,15.82l-5.61,12.24s-4.59,7.14-4.59,9.69,5.1,14.28,5.1,14.28l1.53,8.16s-11.22-.51-13.77,0c-2.55.51-10.71,5.1-12.75,5.1s-12.75-3.06-12.75-3.06l-10.2-4.08s-6.12,3.06-6.63,4.59c-.51,1.53-9.18,7.14-14.8,8.67-5.61,1.53-14.79,0-14.79,0,0,0-5.61-3.57-7.65-2.55-2.04,1.02-12.24,6.12-12.24,6.12,0,0-39.28,5.61-41.32,7.65-2.04,2.04-.51,9.69-.51,9.69,0,0,1.02,3.57-.51,5.61-1.53,2.04-12.75,8.67-12.75,8.67l-13.77,7.14h-7.14l-6.12,6.12s9.69,1.02.51,5.61c-9.18,4.59-10.71,5.1-13.77,7.14-3.06,2.04-17.35,6.12-20.92,6.12s-11.22-2.04-11.22-3.57,1.53-6.63-.51-5.1c-2.04,1.53-10.71,27.55-12.75,29.59-2.04,2.04-20.41,6.12-22.96,7.14-2.55,1.02-25,13.77-27.04,14.28-2.04.51-8.67-1.02-15.3,2.04-6.63,3.06-5.1,8.67-14.28,7.65-9.18-1.02-20.92,7.65-25.51,8.16-4.59.51-21.43-2.04-21.43-2.04l-3.06-6.63s-13.77,4.59-19.9,6.63c-6.12,2.04-22.96,10.2-22.45,6.12.51-4.08,3.06-13.78,5.61-14.28,2.55-.51,10.71-3.06,15.82-5.1,5.1-2.04,8.16-7.14,8.16-7.14l-23.47,1.53s-1.02-6.12,5.1-6.12,13.26,1.02,17.35-1.02c4.08-2.04,9.69-9.69,9.69-9.69l-1.02-11.73s-12.75,5.1-26.02,9.18c-13.26,4.08-28.06,9.69-28.06,9.69,0,0-9.69-1.02-9.69-3.57s-2.55-12.24,7.65-16.33c10.2-4.08,11.73-5.1,17.86-8.16,6.12-3.06,17.86-10.71,20.41-11.73,2.55-1.02,4.08-3.57,4.08-3.57,0,0-7.65,0-14.28,2.55-6.63,2.55-14.8,5.1-22.45,6.63-7.65,1.53-13.77,4.59-16.33,4.59s-6.12,4.08-7.65-1.02c-1.53-5.1-3.57-12.24-5.1-13.26s-9.18,7.65-10.2-3.06c-1.02-10.71,1.53-14.28,0-15.82-1.53-1.53-5.09-6.12-.25-8.67,4.84-2.55,8.41-5.61,16.06-8.16,7.65-2.55,6.63-4.59,18.37-7.65,11.73-3.06,13.77-3.06,18.37-5.61l4.59-2.55-13.26-5.61s-19.39,3.06-23.47,3.06-43.36,1.53-43.36,1.53l3.57-12.24s5.1-6.63,10.2-8.67c5.1-2.04,13.77-9.18,15.31-9.18s13.26-2.04,15.82-.51c2.55,1.53,6.12,3.06,11.73,5.1,5.61,2.04,5.1,4.08,13.26,4.08s16.33,1.53,19.39-.51c3.06-2.04-4.08-6.63-6.63-7.65-2.55-1.02-9.18-.51-8.16-4.08,1.02-3.57,4.08-5.61,3.57-8.67-.51-3.06.51-5.1-4.08-8.16-4.59-3.06-9.18-5.1-9.18-5.1l29.59-11.73s3.57-3.57,4.08-5.1c.51-1.53-5.61-12.24,4.08-11.73,9.69.51,17.86-1.02,24.49-1.02s14.8,2.04,21.94,0c7.14-2.04,8.16-5.61,13.26-6.63,5.1-1.02,11.22-2.55,17.35-4.59,6.12-2.04,13.26-4.08,15.82-4.59,2.55-.51,5.61-5.1,4.08-5.61-1.53-.51-19.9-5.61-19.9-7.14v-4.08s-2.04-3.57-3.57-2.04c-1.53,1.53-4.59,7.65-7.14,10.2-2.55,2.55-9.69,7.65-9.69,7.65,0,0-11.73,6.12-13.77,6.12s-23.98-1.02-26.02-1.02-8.67-5.1-8.67-5.1c0,0-13.77,9.18-15.31,10.2-1.53,1.02-11.22,6.12-14.8,7.14-3.57,1.02-12.75,1.02-12.75,1.02,0,0-.51-5.1,2.55-5.61,3.06-.51,17.35-10.2,20.41-14.8,3.06-4.59,5.1-9.69,8.67-11.22,3.57-1.53,11.73-2.55,14.8-3.57,3.06-1.02,3.57,1.02,6.63-3.06,3.06-4.08,6.12-11.73,8.16-15.82,2.04-4.08,4.08-8.67,5.1-10.71s-7.14-7.14-7.14-7.14c0,0-.51-1.02,1.53-5.1,2.04-4.08,4.08-11.73,5.1-14.28,1.02-2.55,9.18-12.24,9.18-12.24,0,0,0-6.12,3.57-6.63,3.57-.51,11.22.51,16.84.51s13.26-2.04,14.8-3.06c1.53-1.02,5.1-1.02,5.1-6.12s-.51-12.24-.51-12.24c0,0,3.06-3.06-5.1-3.57-8.16-.51-41.32,7.65-42.85,7.65s-14.8-4.59-17.86-4.59-18.88,1.02-18.88-.51,1.02-7.65,2.04-11.73c1.02-4.08,2.55-9.18,1.02-10.71-1.53-1.53-11.22,3.06-13.77,3.57-2.55.51-6.63-3.06-6.63-3.06l-6.12-8.16s-2.55,7.79-9.69,2.37c-7.14-5.43-11.22-7.47-11.22-7.47l-8.67-5.1,6.63-2.07s-2.55-16.81-4.08-17.32c-1.53-.51-15.31-7.14-8.16-8.16,7.14-1.02,22.45-2.55,26.53-2.55s11.73-1.02,13.26-2.04c1.53-1.02-.51-7.14-1.02-8.67-.51-1.53-5.1-14.8-5.1-14.8,0,0,15.82-3.06,18.37-4.59,2.55-1.53,7.65-4.08,12.75-4.08s11.73-1.53,11.73-1.53l2.04-2.55s-1.53-5.61-1.53-8.16.51-7.65.51-7.65c0,0-12.24-3.06-13.77-3.06h-16.33s-.51,9.69-6.12,7.14c-5.61-2.55-8.67-5.1-8.67-6.63s1.53-13.77,6.12-14.28,9.18-7.14,9.18-7.14c0,0-6.63-8.67-7.14-10.2-.51-1.53-4.08-9.69-4.59-11.22-.51-1.53-9.69-12.24-11.22-13.77-1.53-1.53-9.69-1.53-9.69-8.67s4.59-12.24,10.71-12.75c6.12-.51,6.63,3.57,15.82,3.57s9.69-9.69,9.69-9.69c0,0-2.04-2.04,2.55-2.04s17.35,2.55,24.49,2.55,10.2.51,16.33,1.02c6.12.51,10.2,1.53,12.75,2.55,2.55,1.02,3.57.51,6.63,2.04,3.06,1.53,3.06,7.65,5.1,12.75,2.04,5.1,1.02,13.77,6.12,11.22,5.1-2.55,4.59-11.73,6.63-14.8,2.04-3.06-2.04-5.61,7.14-7.65,9.18-2.04,2.04,2.04,16.33,4.08,14.28,2.04,19.9,2.55,24.49,3.06,4.59.51,8.16,0,11.73,2.04,3.57,2.04,6.63-4.59,6.12-7.14-.51-2.55,2.55-7.14-4.59-8.16-7.14-1.02-14.79,3.57-12.24-2.55,2.55-6.12,1.53-12.24,9.18-15.82,7.65-3.57,2.04-7.65,12.75-9.18,10.71-1.53,14.28,1.02,18.88-1.53,4.59-2.55,5.1,5.61,10.71-10.71,5.61-16.33,6.12-23.47,6.12-23.47l-16.33,2.04s-11.73,5.1-12.75,6.63c-1.02,1.53-3.57,11.73-5.1,4.08-1.53-7.65,5.1-6.63-1.53-7.65-6.63-1.02-11.73,0-13.26,0s-14.28-1.53-14.28-1.53l-8.67-7.14Z"/>
  <path class="cls-2" d="M494.55,329.96c-15.69,0-28.46,12.77-28.46,28.46s26.27,49.09,27.39,50.52l1.07,1.37,1.07-1.37c1.12-1.43,27.39-35.26,27.39-50.52s-12.77-28.46-28.46-28.46h0ZM494.55,346.22c6.72,0,12.2,5.47,12.2,12.2s-5.47,12.2-12.2,12.2-12.2-5.47-12.2-12.2,5.47-12.2,12.2-12.2Z"/>
  <path class="cls-2" d="M397.81,208.75c-15.69,0-28.46,12.77-28.46,28.46s26.27,49.09,27.39,50.52l1.07,1.37,1.07-1.37c1.12-1.43,27.39-35.26,27.39-50.52s-12.77-28.46-28.46-28.46h0ZM397.81,225.01c6.72,0,12.2,5.47,12.2,12.2s-5.47,12.2-12.2,12.2-12.2-5.47-12.2-12.2,5.47-12.2,12.2-12.2Z"/>
  <path class="cls-2" d="M156.56,398.34c-15.69,0-28.46,12.77-28.46,28.46s26.27,49.09,27.39,50.52l1.07,1.37,1.07-1.37c1.12-1.43,27.39-35.26,27.39-50.52s-12.77-28.46-28.46-28.46h0ZM156.56,414.6c6.72,0,12.2,5.47,12.2,12.2s-5.47,12.2-12.2,12.2-12.2-5.47-12.2-12.2,5.47-12.2,12.2-12.2Z"/>
  <path class="cls-2" d="M276.22,614.64c-15.69,0-28.46,12.77-28.46,28.46s26.27,49.09,27.39,50.52l1.07,1.37,1.07-1.37c1.12-1.43,27.39-35.26,27.39-50.52s-12.77-28.46-28.46-28.46h0ZM276.22,630.9c6.72,0,12.2,5.47,12.2,12.2s-5.47,12.2-12.2,12.2-12.2-5.47-12.2-12.2,5.47-12.2,12.2-12.2Z"/>
</svg>