<?xml version="1.0" encoding="UTF-8"?>
<svg id="Layer_1" data-name="Layer 1" xmlns="http://www.w3.org/2000/svg" viewBox="0 0 962.7 226.89">
  <defs>
    <style>
      .cls-1 {
        fill: #fff;
      }
    </style>
  </defs>
  <g>
    <path class="cls-1" d="M270.13,67.06v13.57h-38.77v15.73h35.58v12.54h-35.58v18h39.59v13.57h-55.73v-73.42h54.91Z"/>
    <path class="cls-1" d="M294.91,67.06l14.4,23.45,14.91-23.45h17.69l-23.55,35.06,25.6,38.36h-19.23l-16.04-25.4-16.35,25.4h-18.2l25.71-38.46-23.65-34.96h18.71Z"/>
    <path class="cls-1" d="M383.65,67.06c17.17,0,25.3,10.49,25.3,23.55s-8.33,23.55-25.19,23.55h-17.17v26.32h-16.14v-73.42h33.21ZM379.43,101.61c9.25,0,13.88-3.19,13.88-11s-4.32-11-13.78-11h-12.96v22.01h12.85Z"/>
    <path class="cls-1" d="M435.16,67.06v59.85h35.78v13.57h-51.93v-73.42h16.14Z"/>
    <path class="cls-1" d="M548.99,104.08c0,21.39-13.68,38.15-36.09,38.15s-36.09-16.76-36.09-38.15,13.57-38.77,36.09-38.77,36.09,16.56,36.09,38.77ZM512.9,128.65c13.68,0,19.95-11.21,19.95-24.58,0-14.09-6.27-25.19-20.05-25.19s-19.85,11-19.85,25.19,6.48,24.58,19.95,24.58Z"/>
    <path class="cls-1" d="M599.58,67.06c12.96,0,21.49,8.95,21.49,20.26,0,9.25-3.91,15.32-11.62,18.41v.21c10.28,2.88,10.59,14.19,10.9,21.08.31,6.99,1.03,10.9,2.88,13.47h-16.14c-1.23-3.08-1.64-7.51-2.06-12.75-.82-10.28-2.47-15.94-12.65-15.94h-16.25v28.69h-16.14v-73.42h39.59ZM593.92,100.27c6.79,0,11-2.78,11-10.49,0-7.3-4.01-10.18-11.11-10.18h-17.69v20.67h17.79Z"/>
    <path class="cls-1" d="M689.14,67.06v13.57h-38.77v15.73h35.58v12.54h-35.58v18h39.59v13.57h-55.73v-73.42h54.91Z"/>
    <path class="cls-1" d="M784.36,67.06v13.57h-38.77v15.73h35.58v12.54h-35.58v18h39.59v13.57h-55.73v-73.42h54.91ZM776.44,45.77l-15.84,14.6h-10.18l9.87-14.6h16.14Z"/>
    <path class="cls-1" d="M812.22,67.06v73.42h-16.14v-73.42h16.14Z"/>
    <path class="cls-1" d="M866,67.06c12.96,0,21.49,8.95,21.49,20.26,0,9.25-3.91,15.32-11.62,18.41v.21c10.28,2.88,10.59,14.19,10.9,21.08.31,6.99,1.03,10.9,2.88,13.47h-16.14c-1.23-3.08-1.64-7.51-2.06-12.75-.82-10.28-2.47-15.94-12.65-15.94h-16.25v28.69h-16.14v-73.42h39.59ZM860.34,100.27c6.79,0,11-2.78,11-10.49,0-7.3-4.01-10.18-11.11-10.18h-17.69v20.67h17.79Z"/>
    <path class="cls-1" d="M955.56,67.06v13.57h-38.77v15.73h35.58v12.54h-35.58v18h39.59v13.57h-55.73v-73.42h54.91Z"/>
  </g>
  <path class="cls-1" d="M178.88,49.76l-1.07-6.09c-.05-.27-.15-.53-.31-.76-.02-.03-2.03-3.05-2.85-5.12-.53-1.31-1.91-3.38-5.34-2.49h-.01c-.35-.02-.91-.1-1.4-.19.01-.02.03-.05.04-.07,1.38-2.17,1.38-2.84,1.38-3.21,0-.04-.23-4.17-1.87-5.41-.29-.21-.61-.39-.92-.56-.41-.23-.98-.54-1.13-.81-.33-.57-.98-1.35-2.12-2.67-.71-.83-1.85-2.16-2.22-2.74-.13-1.31-.68-4.94-2.95-5.31-.21-.14-.57-.44-.93-.78.26-5-.05-5.47-.38-5.97-.33-.5-1.94-2.6-2.84-3.5-.68-.68-1.83-1.28-3.46-.28-.3.19-.49.3-1,.3h-.22c-.43-.33-1.05-.67-2.08-1.07-2.88-1.15-4.69-.65-5.66-.38-.13.04-.24.07-.26.08-1.47,0-6.24,1.42-7.33,1.78-.59.2-1.16.44-1.76.7-1.35.58-2.74,1.18-4.31,1.18-.24,0-.45,0-.63-.01.11-1.41-.12-3.01-1.74-3.42-.22-.07-1.18-.45-1.88-.72-2.69-1.07-3.32-1.29-3.86-1.32L108.88,0c-.21-.02-.41,0-.61.04l-8.68,1.98c-.06.01-.13.03-.19.05-.97.32-1.32,1.08-1.89,2.33-.26.57-.93,2.01-1.36,2.47,0,0-.02,0-.03,0l-1.6.34c-.37-.2-.95-.61-1.29-.85-1.24-.88-2.52-1.79-3.89-.88-.26.17-.64.5-1.76,1.48-.68.59-1.84,1.61-2.41,2.06-.65.02-2.03-.01-3.16-.06-.64-.02-1.23.24-1.63.72-.3.36-2.93,3.55-3.41,4.18-.6.8-2.53,5.34-2.53,6.99,0,1.34.76,3.25,1.49,4.96-.02.24-.24.72-.37.88-.37.17-1.48.51-2.47.74-.76.18-1.35.79-1.5,1.56-.15.76-.41,1.64-.62,2.2h-2.9c-3.18,0-6.22,5.69-6.51,6.84-.19.75.07,1.54.67,2.03l2.59,2.13c.29.24.65.4,1.03.44,1.79.22,4.02.47,4.5.47.15,0,.38-.02.68-.05.4-.04.98-.11,1.67-.08.01.25.04.52.1.81.38,1.89,1.4,2.37,2.2,2.44,1.79.14,2.44-1.55,2.87-2.68.01-.03.02-.06.03-.08.55-.31,1.71-.87,2.73-1.32l1.84-.23c-.26,1.01-.64,2.35-1.22,4.02-.29.83-.5,1.36-.65,1.68-.44-.01-1.01.07-1.63.41-.21.11-.38.13-1.26.08-.85-.04-2.02-.1-3.69.14-2.37.34-3.23,1.18-3.85,2.43-.14.29-.16.31-.51.48-2.51,1.17-3,3.12-3.37,4.54-.11.44-.22.85-.37,1.23-.58,1.38-.22,2.29.19,2.81.2.26.43.45.67.59-1.25-.13-2.98-.33-6.34-.81-1.56-.22-1.85-.48-1.97-.59-1.07-.95-2.06-.95-3.62-.6-1.67.37-3.38,1.06-3.48,3.32-.14.24-.24.49-.33.75-.09-.29-.16-.6-.23-.9-.3-1.23-.67-2.75-2.09-3.47-.77-.38-1.3-.49-1.68-.56-.2-.04-.3-.06-.45-.12-1.12-.45-2.59-.75-4.38-.9-.44-.04-.83-.07-1.19-.11-1.15-.11-2.14-.2-3.84-.2-1.04,0-2.68-.23-4.12-.42-1.31-.18-2.44-.34-3.19-.34-1.75,0-2.45.81-2.73,1.49-.18.45-.21.93-.1,1.39-.19.63-.64.63-.83.63-1,0-1.43-.2-1.96-.45-.65-.31-1.54-.72-2.93-.61-2.92.24-5.03,2.68-5.03,5.8s2.57,3.84,3.53,4.16c.05.02.09.03.14.04.65.72,2.34,2.72,2.75,3.32.11.3.31.78.67,1.62.28.65.55,1.31.63,1.53.07.22.2.6,1.45,2.3-.16.13-.29.23-.38.25-3.4.38-3.61,6.19-3.61,6.25,0,1.43,1.19,2.63,3.76,3.8.98.44,1.99.41,2.83-.11.73-.44,1.17-1.15,1.43-1.85h3.17c.3.04,1.13.23,2.07.45-.01.27-.02.53-.02.74,0,.42.08.97.18,1.48-.59.09-1.28.18-1.83.18-2.03,0-3.9.94-4.75,1.46-.5.23-2.95.79-4.92,1.17-.57.11-1.06.46-1.35.96-.29.5-.35,1.11-.16,1.65,0,0,1.36,3.94,1.52,4.4.05.15.09.28.13.4-.62.09-1.34.16-1.89.16-1.41,0-6.14.49-8.2.78-2.05.29-2.29,1.84-2.32,2.15-.17,1.89,2.2,3.22,3.53,3.82.14.53.3,1.35.46,2.23l-.32.1c-.76.24-1.3.89-1.39,1.68-.09.79.29,1.55.97,1.95l2.59,1.52s.08.04.11.06c.01,0,1.12.58,3.04,2.04,1.5,1.14,2.78,1.08,3.58.83.1-.03.2-.07.29-.11l.46.61c.08.11.18.21.28.3.59.52,2.13,1.68,3.69,1.37.38-.08.8-.23,1.52-.5,0,0,0,0,0,0l-.05.18c-.27,1.06-.67,3.2-.67,3.99,0,.54.25,1.12.64,1.5.77.75,1.67.85,6.03.68.43-.02.78-.03.91-.03.43.04,2.04.52,2.91.78,1.55.46,2.01.59,2.47.59.33,0,.57-.05,2.62-.5,2.42-.53,7.89-1.73,9.75-1.79.04.69.09,1.71.1,2.56-.16.07-.35.15-.55.27-.45.2-2.15.63-3.38.63-.63,0-1.39-.05-2.13-.1-1.26-.08-2.35-.16-3.18-.03-1.64.23-2.5,1.65-2.72,3.16-1.5,1.81-2.4,3.06-2.66,3.71-.12.29-.28.79-.46,1.37-.28.88-.66,2.09-.99,2.74-.49.98-.99,2.25-.46,3.31.16.33.42.6.73.8.3.19.62.42.89.62,0,.02-.02.04-.03.06-.29.62-.63,1.36-.98,2.05-.18.35-.38.79-.59,1.26-.5,1.09-1.12,2.44-1.65,3.15,0,0-.01.01-.02.02-.26.02-.6.06-1,.2-.26.09-.9.21-1.47.32-1.12.22-2.28.45-3.1.8-1.38.59-2.13,1.85-2.84,3.07-.2.33-.4.68-.62,1.01-.53.8-3.88,3.19-4.87,3.57-1.56.32-2.5,1.88-2.31,3.83.1,1.02.96,1.8,1.99,1.8.71,0,3.12-.03,4.36-.38.59-.17,1.5-.57,2.38-1-.11.85.09,1.69.26,2.31-.07.08-.15.16-.22.25l-8.42,3.34c-.75.3-1.24,1.01-1.26,1.82-.02.8.45,1.54,1.18,1.87.01,0,1.24.56,2.45,1.36.14.09.22.16.27.2,0,.05,0,.11,0,.17.01.16.02.32.04.5-.05.08-.12.19-.17.27-.26.4-.61.95-.81,1.68-.21.74-.11,1.49.29,2.11.02.03.04.06.06.09-.91-.01-1.09-.12-1.53-.37-.35-.2-.82-.47-1.54-.73-1.57-.57-2.54-.99-3.16-1.36-1-.6-2.41-.55-5.21-.2-.27.03-.49.06-.54.07-.83,0-1.45.42-2.8,1.35-.8.54-1.89,1.29-2.51,1.54-1.93.77-3.58,2.82-3.89,3.23-.15.2-.27.42-.33.66l-1.07,3.65c-.18.62-.05,1.28.34,1.79.4.51.99.81,1.65.77,3.25-.13,11.89-.46,12.86-.46.34,0,.93-.05,1.64-.13-.96.36-1.53.68-2.05.98-.47.27-.84.48-1.6.74-1.81.6-2.95,1.29-3.96,1.9-.37.23-.74.45-1.14.66-.99.52-1.61,1.35-1.76,2.35-.18,1.19.37,2.22.87,2.87v.02c-.11.77-.28,2.06-.09,4.02.15,1.53.72,2.57,1.7,3.1.82.44,1.65.37,2.33.17.19.59.39,1.24.51,1.66l.1.34c.35,1.18,1.04,1.71,1.56,1.95,1.12.52,2.14.08,2.68-.16.05-.02.1-.05.16-.07.24-.01.49-.06.75-.12-1.61,1.22-2.3,3.12-2.05,5.68,0,.09.02.17.02.21,0,2.56,3.52,2.93,4.68,3.05.32.03.63,0,.92-.12.03-.01,2.37-.9,5.12-1.83-.07.07-.13.14-.19.2-.82.97-.85,2.16-.8,2.71l-.11,2.23c-1.21,1.54-1.62,4.24-1.7,4.92-.1.82.22,1.6.86,2.09.45.34.95.5,1.54.5,1.19,0,2.78-.62,5.17-1.58.69-.28,1.32-.54,1.75-.68l4.24-1.41.16.35c.28.61.85,1.04,1.52,1.14,1.24.19,5.4.79,6.91.62.83-.09,1.7-.51,2.81-1.04,1.34-.64,3.2-1.53,4.36-1.39,2.53.27,3.59-.7,4.47-1.73.3-.35.48-.56.85-.73.97-.45,1.99-.42,2.81-.4.51.01.95.03,1.4-.08.5-.13,1.27-.52,5.11-2.62,1.3-.71,2.91-1.59,3.2-1.72.2-.07,1.03-.29,1.7-.46,3.99-1.05,5.1-1.43,5.76-2.04l6.8-5.81c1.9-.3,5.41-1.34,6.52-2.08.52-.35.85-.51,1.93-1.04.49-.24,1.12-.55,1.96-.97.17-.08.32-.19.46-.32l3.61-3.32,3.87-2.01s.06-.04.1-.05c3.69-2.18,4.2-2.86,4.39-3.11.92-1.23.63-2.81.5-3.32-.05-.29-.09-.63-.11-.91,1.93-.45,6.77-1.25,10.92-1.84.21-.03.42-.09.61-.19l3.17-1.59c.24.1.55.27.8.42.23.14.48.24.74.29.33.05,3.23.51,5.27-.04,1.04-.28,4.44-1.79,5.52-3.37.11-.08.28-.19.48-.31l2.17.87c.06.03.13.05.19.07,3.47.99,4.13.99,4.35.99.74,0,1.5-.34,2.89-.98.45-.21,1.13-.53,1.28-.57.42-.06,2.22-.03,3.65.03.61.02,1.2-.23,1.6-.69.4-.46.57-1.08.46-1.68l-.46-2.44c-.03-.15-.07-.29-.13-.43-.53-1.22-1.14-2.77-1.32-3.42.16-.41.6-1.21,1.01-1.86.05-.08.1-.16.14-.25l1.65-3.59c.98-1.96,2.12-4.19,2.31-4.5.2-.29.52-.79,1.36-4.98,0-.05.02-.09.02-.14l.46-3.65s.01-.1.01-.15c.07-1.32.26-2.81.4-3.17.29-.58.54-1.34.81-2.14.24-.71.48-1.45.75-2.05.64-1.44,2.47-9.39,3.02-11.79.04-.17.06-.35.05-.53l-.15-3.51.44-4.43c.03-.31-.01-.62-.12-.92-1-2.6-3.17-8.23-3.94-10.1l.41-4.58c.02-.2,0-.4-.03-.59l-.84-4.01,1.01-6.48c.1-.63-.11-1.27-.56-1.72-.02-.02-1.56-1.57-2.52-2.93-.7-1-2.17-3.89-2.93-5.43l.53-3.97c.05-.4-.01-.8-.19-1.16l-.91-1.83c-.16-.31-.39-.58-.68-.77-1.19-.79-2.49-1.83-2.89-2.31-.03-.44.07-1.37.24-2.4h4.29c1.51,0,3.39,0,4.03-1.61.21-.54.29-1.32-.37-2.2,0,0,0,0,0,0h1.83c.45,0,.88-.15,1.24-.43,5.93-4.67,5.73-6.05,5.62-6.82-.02-.61.5-2.68.89-3.89.09.01.18.03.27.04.86.12,2.03.3,3.56.3,1.13,0,3.47,0,4.07-1.89.13-.43.14-.87.02-1.29l5.02-10.6c.18-.37.23-.79.16-1.2ZM69.41,60.56c.44-.07.95-.13,1.37-.13,0,.12-.01.24,0,.38-.47-.14-.93-.2-1.38-.24h.02ZM133.07,77.98l-35.15,75.27c-.72,1.55-2.16,2.63-3.85,2.89-.26.04-.52.06-.78.06-1.42,0-2.78-.59-3.76-1.65-.04-.05-.08-.11-.1-.17l-9.72-33.82-32.87-12.56c-.06-.02-.12-.06-.16-.11-1.16-1.26-1.6-3-1.2-4.66.4-1.66,1.6-3,3.2-3.59l78-28.61c1.98-.72,4.1-.21,5.52,1.34s1.76,3.71.87,5.62ZM134.4,183.57s.05-.09.07-.14h0c-.02.05-.04.1-.07.14Z"/>
</svg>